<svg width="1600" height="900" viewBox="0 0 1600 900" fill="none" xmlns="http://www.w3.org/2000/svg">
<path d="M1571.36 597.001C1568.87 598.466 1565.73 599.565 1561.94 600.298C1558.16 600.965 1554.12 601.304 1549.82 601.314C1545.52 601.258 1541.3 600.878 1537.14 600.174C1532.98 599.404 1529.29 598.315 1526.05 596.906C1522.75 595.431 1520.26 593.673 1518.6 591.634C1516.86 589.528 1516.31 587.112 1516.93 584.385C1517.62 581.724 1519.17 579.856 1521.59 578.78C1524.02 577.64 1527.02 577.157 1530.6 577.334C1534.11 577.509 1537.91 578.177 1542 579.336C1546.02 580.495 1549.97 582.011 1553.85 583.884C1557.74 585.757 1561.23 587.82 1564.32 590.073C1567.42 592.327 1569.77 594.636 1571.36 597.001ZM1574.51 595.088C1571 594.978 1567.01 594.047 1562.54 592.297C1558.07 590.481 1553.57 588.112 1549.05 585.189C1544.47 582.2 1540.25 578.923 1536.38 575.357C1532.52 571.792 1529.35 568.17 1526.86 564.492C1524.36 560.748 1522.91 557.181 1522.5 553.79C1522.09 550.399 1523.14 547.515 1525.64 545.138C1528.15 542.696 1531.09 541.725 1534.47 542.224C1537.78 542.723 1541.28 544.265 1544.96 546.852C1548.63 549.439 1552.24 552.708 1555.77 556.66C1559.23 560.611 1562.37 564.883 1565.17 569.477C1567.98 574.071 1570.23 578.625 1571.93 583.14C1573.63 587.589 1574.49 591.572 1574.51 595.088ZM1576.41 592.085C1574.08 590.427 1571.84 588.022 1569.66 584.868C1567.49 581.65 1565.52 578.076 1563.75 574.147C1561.97 570.217 1560.59 566.228 1559.6 562.178C1558.55 558.128 1557.98 554.312 1557.89 550.73C1557.81 547.148 1558.37 544.16 1559.57 541.766C1560.78 539.307 1562.72 537.802 1565.39 537.251C1568.07 536.699 1570.44 537.316 1572.5 539.1C1574.49 540.884 1576.15 543.445 1577.48 546.782C1578.8 550.055 1579.8 553.779 1580.46 557.954C1581.06 562.064 1581.33 566.299 1581.27 570.661C1581.15 574.957 1580.71 578.988 1579.95 582.754C1579.12 586.52 1577.94 589.63 1576.41 592.085ZM1565.05 594.185L1573.16 586.378C1579.16 580.596 1585.43 576.64 1591.97 574.51C1598.51 572.38 1605.05 571.976 1611.61 573.298C1618.17 574.554 1624.45 577.5 1630.45 582.135C1636.44 586.77 1641.8 592.959 1646.52 600.702L1722.08 724.537C1724.63 728.802 1725.42 732.621 1724.47 735.994C1723.58 739.368 1721.95 742.212 1719.57 744.526C1716.94 747.096 1713.89 748.717 1710.43 749.389C1706.97 750.06 1703.27 749.101 1699.33 746.511L1577.68 667.889C1569.93 662.84 1563.82 657.26 1559.34 651.147C1554.86 645.034 1552.04 638.682 1550.89 632.092C1549.74 625.436 1550.34 618.867 1552.71 612.387C1555 605.905 1559.12 599.838 1565.05 594.185ZM1573.92 603.089C1567.92 608.936 1564.3 614.978 1563.04 621.212C1561.79 627.446 1562.95 633.647 1566.51 639.813C1570.02 645.913 1575.93 651.654 1584.26 657.035L1705.92 735.755C1707.08 736.487 1708.18 736.664 1709.23 736.286C1710.28 735.909 1711 735.202 1711.41 734.166C1711.81 733.064 1711.66 731.923 1710.96 730.742L1635.5 607.104C1630.33 598.704 1624.78 592.675 1618.83 589.017C1612.82 585.359 1606.72 584.076 1600.52 585.168C1594.26 586.194 1588.09 589.598 1582.03 595.38L1573.92 603.089ZM1601.94 634.116C1603.1 635.173 1603.7 636.483 1603.75 638.046C1603.73 639.543 1603.16 640.87 1602.04 642.028L1581.46 662.566L1573.45 654.845L1594.23 634.114C1595.35 633.022 1596.66 632.485 1598.15 632.505C1599.59 632.458 1600.85 632.995 1601.94 634.116ZM1613.99 654.292C1615.02 655.412 1615.55 656.721 1615.6 658.219C1615.65 659.652 1615.08 660.947 1613.89 662.104L1598.06 678.015L1589.95 670.293L1606.08 654.288C1607.26 653.131 1608.64 652.563 1610.2 652.583C1611.7 652.602 1612.96 653.172 1613.99 654.292ZM1655.31 676.017C1654.29 674.897 1653.75 673.588 1653.7 672.09C1653.66 670.592 1654.23 669.264 1655.42 668.108L1671.54 651.81L1677.48 661.457L1663.23 675.924C1662.04 677.08 1660.73 677.65 1659.3 677.631C1657.8 677.612 1656.47 677.074 1655.31 676.017ZM1671.82 691.368C1670.72 690.312 1670.19 689.035 1670.21 687.538C1670.16 686.04 1670.73 684.745 1671.92 683.653L1683.79 671.696L1689.62 681.537L1679.73 691.469C1678.54 692.561 1677.2 693.097 1675.7 693.078C1674.2 693.059 1672.91 692.488 1671.82 691.368Z" fill="#F2BBBB" fill-opacity="0.28"/>
<path d="M1569.97 244.156C1568.48 241.682 1567.34 238.557 1566.55 234.781C1565.84 231.005 1565.45 226.969 1565.38 222.672C1565.38 218.375 1565.71 214.143 1566.36 209.977C1567.08 205.81 1568.12 202.099 1569.48 198.844C1570.92 195.523 1572.64 193.017 1574.66 191.324C1576.74 189.566 1579.15 188.98 1581.89 189.566C1584.56 190.217 1586.44 191.747 1587.55 194.156C1588.72 196.565 1589.24 199.56 1589.11 203.141C1588.98 206.656 1588.36 210.465 1587.26 214.566C1586.15 218.603 1584.69 222.574 1582.86 226.48C1581.04 230.387 1579.02 233.902 1576.81 237.027C1574.6 240.152 1572.32 242.529 1569.97 244.156ZM1571.93 247.281C1571.99 243.766 1572.87 239.762 1574.56 235.27C1576.32 230.777 1578.63 226.253 1581.5 221.695C1584.43 217.073 1587.65 212.809 1591.16 208.902C1594.68 204.996 1598.26 201.773 1601.91 199.234C1605.62 196.695 1609.17 195.198 1612.55 194.742C1615.94 194.286 1618.83 195.296 1621.24 197.77C1623.72 200.243 1624.73 203.173 1624.27 206.559C1623.81 209.879 1622.32 213.395 1619.78 217.105C1617.24 220.816 1614.02 224.462 1610.11 228.043C1606.2 231.559 1601.97 234.749 1597.41 237.613C1592.86 240.478 1588.33 242.789 1583.84 244.547C1579.41 246.305 1575.44 247.216 1571.93 247.281ZM1574.95 249.137C1576.58 246.793 1578.96 244.514 1582.08 242.301C1585.27 240.087 1588.82 238.069 1592.73 236.246C1596.63 234.423 1600.6 232.991 1604.64 231.949C1608.68 230.842 1612.49 230.224 1616.07 230.094C1619.65 229.964 1622.64 230.484 1625.05 231.656C1627.52 232.828 1629.05 234.749 1629.64 237.418C1630.23 240.087 1629.64 242.464 1627.88 244.547C1626.12 246.565 1623.59 248.258 1620.27 249.625C1617.01 250.992 1613.3 252.034 1609.13 252.75C1605.03 253.401 1600.8 253.727 1596.44 253.727C1592.14 253.661 1588.1 253.271 1584.33 252.555C1580.55 251.773 1577.43 250.634 1574.95 249.137ZM1572.71 237.809L1580.62 245.816C1586.48 251.741 1590.51 257.958 1592.73 264.469C1594.94 270.979 1595.43 277.522 1594.19 284.098C1593.02 290.673 1590.15 296.988 1585.6 303.043C1581.04 309.098 1574.92 314.534 1567.24 319.352L1444.39 396.5C1440.15 399.104 1436.35 399.951 1432.96 399.039C1429.58 398.193 1426.71 396.598 1424.37 394.254C1421.76 391.65 1420.1 388.622 1419.39 385.172C1418.67 381.721 1419.58 378.01 1422.12 374.039L1499.17 251.383C1504.12 243.57 1509.62 237.385 1515.68 232.828C1521.73 228.271 1528.05 225.374 1534.62 224.137C1541.26 222.9 1547.84 223.421 1554.35 225.699C1560.86 227.913 1566.98 231.949 1572.71 237.809ZM1563.92 246.793C1557.99 240.868 1551.91 237.32 1545.66 236.148C1539.41 234.977 1533.22 236.214 1527.1 239.859C1521.05 243.44 1515.38 249.43 1510.11 257.828L1432.96 380.484C1432.24 381.656 1432.08 382.763 1432.47 383.805C1432.86 384.846 1433.58 385.562 1434.62 385.953C1435.73 386.344 1436.87 386.181 1438.04 385.465L1560.7 308.414C1569.03 303.141 1574.99 297.509 1578.57 291.52C1582.15 285.465 1583.35 279.345 1582.18 273.16C1581.07 266.91 1577.59 260.79 1571.73 254.801L1563.92 246.793ZM1533.25 275.211C1532.21 276.383 1530.91 277.001 1529.35 277.066C1527.85 277.066 1526.52 276.513 1525.34 275.406L1504.54 255.094L1512.16 246.988L1533.16 267.496C1534.26 268.603 1534.82 269.905 1534.82 271.402C1534.88 272.835 1534.36 274.104 1533.25 275.211ZM1513.23 287.516C1512.13 288.557 1510.83 289.111 1509.33 289.176C1507.9 289.241 1506.59 288.687 1505.42 287.516L1489.31 271.891L1496.93 263.687L1513.14 279.605C1514.31 280.777 1514.89 282.145 1514.89 283.707C1514.89 285.204 1514.34 286.474 1513.23 287.516ZM1492.04 329.117C1493.15 328.076 1494.45 327.522 1495.95 327.457C1497.45 327.392 1498.78 327.945 1499.95 329.117L1516.46 345.035L1506.89 351.09L1492.24 337.027C1491.07 335.855 1490.48 334.553 1490.48 333.121C1490.48 331.624 1491 330.289 1492.04 329.117ZM1476.91 345.816C1477.95 344.71 1479.22 344.156 1480.71 344.156C1482.21 344.091 1483.51 344.645 1484.62 345.816L1496.73 357.535L1486.96 363.492L1476.91 353.727C1475.8 352.555 1475.25 351.22 1475.25 349.723C1475.25 348.225 1475.8 346.923 1476.91 345.816Z" fill="#F2BBBB" fill-opacity="0.28"/>
<path d="M156.874 430.009C155.22 432.38 152.825 434.689 149.69 436.934C146.529 439.12 142.997 441.113 139.096 442.915C135.168 444.657 131.168 446.076 127.095 447.17C122.996 448.205 119.181 448.757 115.651 448.827C112.036 448.864 109.045 448.303 106.679 447.145C104.228 445.953 102.715 443.989 102.142 441.252C101.655 438.548 102.288 436.201 104.041 434.213C105.768 432.165 108.295 430.475 111.621 429.142C114.887 427.835 118.619 426.857 122.817 426.205C126.956 425.58 131.18 425.309 135.49 425.392C139.8 425.474 143.832 425.894 147.586 426.65C151.34 427.407 154.436 428.526 156.874 430.009ZM158.939 426.956C155.699 428.322 151.682 429.142 146.89 429.416C142.071 429.631 136.997 429.353 131.67 428.582C126.257 427.778 121.052 426.561 116.056 424.931C111.06 423.301 106.662 421.335 102.863 419.031C99.0372 416.669 96.2298 414.032 94.4405 411.123C92.6513 408.213 92.3991 405.155 93.6839 401.95C94.9423 398.686 97.2112 396.575 100.491 395.619C103.711 394.69 107.531 394.633 111.953 395.449C116.375 396.266 121.014 397.733 125.871 399.852C130.669 401.998 135.301 404.572 139.767 407.577C144.233 410.581 148.181 413.78 151.609 417.174C155.011 420.508 157.454 423.769 158.939 426.956ZM159.408 423.436C156.605 422.899 153.559 421.651 150.268 419.691C146.951 417.673 143.668 415.248 140.418 412.416C137.168 409.584 134.248 406.535 131.659 403.267C129.011 400.026 126.901 396.796 125.33 393.575C123.76 390.355 123.021 387.406 123.116 384.729C123.184 381.992 124.319 379.815 126.522 378.197C128.724 376.579 131.134 376.152 133.751 376.914C136.309 377.702 138.886 379.337 141.482 381.818C144.051 384.239 146.508 387.209 148.852 390.727C151.11 394.213 153.124 397.949 154.892 401.936C156.575 405.891 157.854 409.739 158.731 413.481C159.548 417.249 159.773 420.568 159.408 423.436ZM149.963 430.083L154.076 419.605C157.116 411.847 161.163 405.636 166.216 400.973C171.27 396.31 177.053 393.211 183.566 391.675C190.051 390.08 196.986 390.138 204.368 391.849C211.751 393.56 219.201 396.95 226.72 402.02L347.054 483.039C351.15 485.852 353.468 488.99 354.007 492.454C354.606 495.892 354.31 499.158 353.117 502.25C351.793 505.687 349.699 508.432 346.835 510.485C343.971 512.539 340.209 513.211 335.549 512.5L192.187 491.798C183.039 490.443 175.155 487.922 168.534 484.235C161.913 480.548 156.704 475.95 152.908 470.441C149.084 464.872 146.894 458.65 146.338 451.775C145.721 444.926 146.93 437.696 149.963 430.083ZM161.739 434.474C158.726 442.292 157.951 449.295 159.413 455.483C160.876 461.672 164.515 466.824 170.329 470.94C176.057 475.023 183.829 477.772 193.644 479.187L337.046 499.978C338.408 500.157 339.485 499.857 340.279 499.078C341.073 498.298 341.437 497.353 341.372 496.243C341.28 495.073 340.67 494.097 339.54 493.316L219.375 412.435C211.175 406.956 203.612 403.794 196.685 402.949C189.699 402.131 183.616 403.511 178.438 407.09C173.173 410.636 168.991 416.301 165.892 424.086L161.739 434.474ZM200.15 450.982C201.643 451.459 202.737 452.399 203.43 453.801C204.037 455.17 204.072 456.614 203.535 458.134L193.401 485.384L182.904 481.707L193.137 454.2C193.7 452.739 194.666 451.705 196.035 451.098C197.318 450.458 198.689 450.419 200.15 450.982ZM219.515 464.293C220.916 464.883 221.949 465.849 222.616 467.191C223.256 468.474 223.278 469.889 222.682 471.435L214.932 492.5L204.345 488.863L212.323 467.59C212.919 466.044 213.932 464.954 215.36 464.32C216.729 463.713 218.114 463.704 219.515 464.293ZM266.135 466.797C264.734 466.208 263.701 465.242 263.034 463.899C262.367 462.557 262.332 461.113 262.928 459.566L270.787 438.026L280.202 444.319L273.287 463.411C272.691 464.958 271.738 466.021 270.429 466.602C269.06 467.209 267.629 467.274 266.135 466.797ZM287.538 473.863C286.104 473.36 285.083 472.423 284.476 471.055C283.809 469.712 283.787 468.298 284.41 466.811L290.212 450.99L299.617 457.501L294.768 470.656C294.146 472.143 293.15 473.19 291.782 473.797C290.413 474.404 288.998 474.426 287.538 473.863Z" fill="#F2BBBB" fill-opacity="0.28"/>
<path d="M1439.07 802.415C1441.55 800.925 1444.67 799.794 1448.45 799.023C1452.23 798.317 1456.27 797.938 1460.56 797.884C1464.86 797.896 1469.09 798.233 1473.26 798.895C1477.42 799.623 1481.13 800.675 1484.38 802.051C1487.7 803.492 1490.2 805.224 1491.89 807.247C1493.64 809.335 1494.22 811.745 1493.62 814.478C1492.97 817.146 1491.43 819.029 1489.02 820.13C1486.61 821.295 1483.61 821.808 1480.03 821.668C1476.52 821.528 1472.71 820.899 1468.61 819.781C1464.58 818.663 1460.61 817.188 1456.71 815.354C1452.81 813.521 1449.3 811.493 1446.18 809.271C1443.06 807.049 1440.69 804.764 1439.07 802.415ZM1435.94 804.36C1439.45 804.435 1443.45 805.325 1447.94 807.029C1452.43 808.8 1456.95 811.123 1461.5 814C1466.11 816.942 1470.37 820.177 1474.26 823.703C1478.16 827.229 1481.37 830.819 1483.9 834.471C1486.43 838.189 1487.92 841.741 1488.37 845.128C1488.81 848.515 1487.79 851.409 1485.31 853.811C1482.83 856.278 1479.9 857.279 1476.52 856.815C1473.2 856.35 1469.69 854.843 1465.98 852.294C1462.28 849.744 1458.64 846.512 1455.07 842.596C1451.57 838.68 1448.39 834.44 1445.54 829.875C1442.68 825.31 1440.38 820.778 1438.64 816.282C1436.89 811.85 1435.99 807.876 1435.94 804.36ZM1434.07 807.382C1436.41 809.016 1438.68 811.399 1440.89 814.53C1443.09 817.726 1445.1 821.28 1446.92 825.191C1448.73 829.102 1450.15 833.077 1451.18 837.117C1452.28 841.156 1452.88 844.966 1453 848.547C1453.12 852.128 1452.6 855.122 1451.42 857.527C1450.24 859.998 1448.31 861.523 1445.64 862.102C1442.97 862.68 1440.6 862.088 1438.52 860.324C1436.51 858.561 1434.82 856.017 1433.46 852.693C1432.1 849.434 1431.07 845.721 1430.37 841.552C1429.73 837.449 1429.41 833.216 1429.42 828.854C1429.5 824.557 1429.9 820.522 1430.63 816.748C1431.42 812.974 1432.57 809.852 1434.07 807.382ZM1445.41 805.167L1437.38 813.055C1431.44 818.899 1425.21 822.918 1418.69 825.114C1412.18 827.31 1405.63 827.78 1399.06 826.525C1392.49 825.336 1386.18 822.454 1380.14 817.88C1374.1 813.306 1368.68 807.172 1363.88 799.476L1287.07 676.415C1284.47 672.176 1283.64 668.365 1284.56 664.983C1285.41 661.599 1287.02 658.739 1289.37 656.402C1291.98 653.805 1295.01 652.153 1298.46 651.446C1301.91 650.739 1305.62 651.661 1309.59 654.211L1432.03 731.595C1439.83 736.564 1446 742.083 1450.54 748.15C1455.08 754.217 1457.96 760.54 1459.18 767.119C1460.4 773.763 1459.86 780.337 1457.57 786.841C1455.34 793.345 1451.28 799.454 1445.41 805.167ZM1436.45 796.354C1442.39 790.445 1445.95 784.368 1447.14 778.121C1448.33 771.874 1447.11 765.686 1443.48 759.556C1439.92 753.492 1433.94 747.811 1425.56 742.515L1303.11 665.033C1301.94 664.314 1300.84 664.148 1299.79 664.536C1298.75 664.923 1298.03 665.638 1297.64 666.678C1297.25 667.784 1297.41 668.924 1298.12 670.098L1374.83 792.963C1380.09 801.311 1385.7 807.283 1391.68 810.88C1397.73 814.477 1403.84 815.699 1410.03 814.543C1416.28 813.454 1422.41 809.987 1428.42 804.144L1436.45 796.354ZM1408.11 765.612C1406.94 764.567 1406.33 763.264 1406.27 761.701C1406.27 760.204 1406.83 758.87 1407.94 757.702L1428.31 736.956L1436.39 744.595L1415.83 765.536C1414.72 766.639 1413.41 767.189 1411.92 767.185C1410.48 767.246 1409.22 766.722 1408.11 765.612ZM1395.86 745.559C1394.82 744.45 1394.27 743.146 1394.21 741.649C1394.15 740.216 1394.71 738.916 1395.88 737.747L1411.55 721.676L1419.73 729.316L1403.77 745.483C1402.6 746.652 1401.23 747.234 1399.67 747.23C1398.17 747.226 1396.9 746.669 1395.86 745.559ZM1354.32 724.255C1355.36 725.364 1355.91 726.668 1355.97 728.165C1356.03 729.663 1355.47 730.996 1354.3 732.165L1338.33 748.625L1332.31 739.039L1346.41 724.428C1347.58 723.26 1348.89 722.677 1350.32 722.681C1351.82 722.685 1353.15 723.21 1354.32 724.255ZM1337.66 709.073C1338.76 710.117 1339.31 711.388 1339.31 712.886C1339.37 714.383 1338.81 715.684 1337.64 716.787L1325.89 728.865L1319.96 719.083L1329.75 709.051C1330.93 707.947 1332.26 707.398 1333.76 707.402C1335.26 707.406 1336.56 707.963 1337.66 709.073Z" fill="#F2BBBB" fill-opacity="0.28"/>
<path d="M781.071 725.31C778.967 723.326 777.034 720.62 775.272 717.19C773.572 713.743 772.117 709.957 770.906 705.834C769.757 701.694 768.94 697.529 768.454 693.34C768.03 689.133 768.042 685.279 768.489 681.777C768.982 678.194 769.975 675.318 771.467 673.147C773.005 670.897 775.169 669.688 777.961 669.522C780.707 669.436 782.935 670.406 784.646 672.431C786.419 674.439 787.721 677.186 788.553 680.671C789.367 684.093 789.789 687.929 789.819 692.177C789.831 696.362 789.481 700.581 788.768 704.832C788.056 709.083 787.051 713.011 785.753 716.613C784.455 720.216 782.895 723.115 781.071 725.31ZM783.789 727.799C782.912 724.394 782.688 720.301 783.119 715.52C783.612 710.721 784.63 705.744 786.172 700.586C787.76 695.349 789.725 690.379 792.069 685.675C794.413 680.971 797.002 676.908 799.836 673.487C802.733 670.049 805.752 667.657 808.893 666.313C812.033 664.969 815.095 665.167 818.077 666.908C821.122 668.63 822.878 671.184 823.343 674.568C823.792 677.889 823.289 681.677 821.834 685.932C820.379 690.186 818.248 694.561 815.441 699.055C812.616 703.487 809.391 707.692 805.765 711.671C802.14 715.649 798.397 719.086 794.538 721.98C790.742 724.857 787.159 726.797 783.789 727.799ZM787.202 728.778C788.144 726.085 789.824 723.254 792.244 720.286C794.727 717.3 797.606 714.407 800.883 711.606C804.16 708.805 807.604 706.364 811.215 704.281C814.809 702.136 818.314 700.522 821.729 699.439C825.145 698.357 828.17 698.058 830.804 698.543C833.502 699.011 835.489 700.453 836.767 702.869C838.045 705.284 838.116 707.731 836.979 710.208C835.825 712.623 833.83 714.932 830.996 717.137C828.225 719.325 824.927 721.321 821.104 723.124C817.325 724.848 813.335 726.293 809.131 727.459C804.973 728.544 800.979 729.247 797.149 729.566C793.302 729.822 789.986 729.56 787.202 728.778ZM782.01 718.463L791.772 724.065C799.002 728.208 804.553 733.12 808.427 738.802C812.3 744.484 814.519 750.658 815.085 757.325C815.713 763.975 814.64 770.826 811.867 777.878C809.094 784.931 804.65 791.805 798.535 798.501L700.774 905.678C697.392 909.319 693.948 911.152 690.442 911.179C686.954 911.268 683.767 910.497 680.882 908.865C677.677 907.052 675.268 904.578 673.655 901.445C672.043 898.311 671.929 894.491 673.315 889.986L714.778 751.198C717.458 742.347 721.106 734.917 725.722 728.907C730.338 722.897 735.649 718.417 741.655 715.468C747.723 712.501 754.199 711.245 761.081 711.701C767.947 712.094 774.923 714.348 782.01 718.463ZM775.942 729.469C768.649 725.344 761.835 723.552 755.499 724.093C749.163 724.634 743.534 727.479 738.611 732.628C733.734 737.697 729.877 744.983 727.04 754.485L685.483 893.299C685.106 894.62 685.245 895.73 685.9 896.629C686.555 897.529 687.436 898.028 688.544 898.125C689.715 898.206 690.769 897.745 691.707 896.741L789.307 789.71C795.927 782.401 800.162 775.382 802.012 768.653C803.844 761.862 803.369 755.643 800.586 749.996C797.849 744.269 792.857 739.303 785.61 735.098L775.942 729.469ZM753.989 765.049C753.298 766.457 752.209 767.401 750.721 767.881C749.278 768.282 747.844 768.105 746.419 767.352L720.945 753.338L726.119 743.492L751.833 757.641C753.195 758.412 754.076 759.519 754.477 760.962C754.922 762.324 754.76 763.687 753.989 765.049ZM737.987 782.257C737.198 783.557 736.092 784.438 734.666 784.901C733.303 785.347 731.901 785.161 730.458 784.345L710.755 773.596L715.902 763.655L735.778 774.661C737.221 775.477 738.151 776.638 738.568 778.144C738.969 779.586 738.775 780.958 737.987 782.257ZM728.686 828.009C729.474 826.71 730.58 825.829 732.006 825.366C733.431 824.903 734.865 825.079 736.308 825.895L756.466 836.823L748.862 845.215L730.988 835.58C729.546 834.764 728.633 833.665 728.25 832.285C727.85 830.842 727.995 829.417 728.686 828.009ZM718.563 848.147C719.271 846.802 720.346 845.929 721.789 845.529C723.215 845.066 724.617 845.251 725.997 846.085L740.798 854.141L732.98 862.491L720.677 855.769C719.298 854.936 718.408 853.798 718.007 852.355C717.607 850.912 717.792 849.509 718.563 848.147Z" fill="#F2BBBB" fill-opacity="0.28"/>
<path d="M90.438 699.465C87.5968 700.003 84.2707 699.979 80.4596 699.392C76.6713 698.744 72.7527 697.7 68.7039 696.26C64.6778 694.758 60.8264 692.975 57.1497 690.909C53.4958 688.783 50.3826 686.51 47.8101 684.092C45.1994 681.59 43.4536 679.098 42.5726 676.615C41.6534 674.049 41.946 671.587 43.4503 669.23C44.9928 666.956 47.086 665.722 49.7297 665.526C52.3962 665.27 55.3842 665.828 58.6938 667.201C61.9424 668.551 65.295 670.461 68.7514 672.931C72.1469 675.378 75.3562 678.138 78.3795 681.211C81.4027 684.284 83.9917 687.403 86.1465 690.569C88.3013 693.735 89.7318 696.7 90.438 699.465ZM94.0484 698.726C90.7771 697.437 87.3325 695.215 83.7148 692.059C80.1197 688.843 76.6876 685.097 73.4182 680.82C70.1106 676.46 67.2408 671.951 64.8089 667.292C62.3771 662.633 60.6084 658.152 59.5031 653.849C58.4205 649.485 58.257 645.637 59.0127 642.306C59.7684 638.975 61.7261 636.613 64.8857 635.22C68.0681 633.766 71.1657 633.844 74.1786 635.454C77.1305 637.041 79.9015 639.672 82.4915 643.348C85.0816 647.023 87.3718 651.317 89.3622 656.228C91.2916 661.116 92.8023 666.196 93.8943 671.467C94.9862 676.737 95.571 681.785 95.6487 686.608C95.7491 691.37 95.2157 695.41 94.0484 698.726ZM96.8446 696.538C95.2172 694.194 93.9123 691.172 92.93 687.47C91.9704 683.708 91.319 679.678 90.9756 675.381C90.6322 671.084 90.6776 666.863 91.1118 662.717C91.4849 658.548 92.236 654.763 93.3649 651.362C94.4939 647.962 96.0282 645.338 97.9678 643.49C99.9301 641.581 102.264 640.819 104.97 641.202C107.676 641.586 109.698 642.965 111.036 645.34C112.312 647.692 113.011 650.663 113.133 654.251C113.276 657.779 112.956 661.62 112.171 665.774C111.348 669.845 110.175 673.924 108.651 678.011C107.089 682.014 105.313 685.66 103.322 688.948C101.271 692.213 99.112 694.743 96.8446 696.538ZM85.4456 694.685L95.7123 690.071C103.311 686.65 110.546 685.041 117.42 685.241C124.293 685.441 130.595 687.27 136.324 690.726C142.075 694.121 146.992 699.012 151.073 705.397C155.154 711.782 158.11 719.416 159.94 728.297L189.308 870.36C190.269 875.235 189.732 879.099 187.695 881.953C185.719 884.829 183.224 886.956 180.209 888.334C176.859 889.864 173.442 890.362 169.959 889.827C166.476 889.293 163.317 887.142 160.483 883.376L72.4742 768.329C66.8826 760.963 63.0093 753.648 60.8545 746.383C58.6996 739.117 58.1913 732.188 59.3295 725.595C60.4904 718.94 63.2757 712.961 67.6852 707.657C72.0338 702.33 77.9539 698.006 85.4456 694.685ZM90.7933 706.059C83.1724 709.54 77.7211 714.004 74.4396 719.451C71.158 724.898 70.1563 731.125 71.4344 738.133C72.6742 745.057 76.3076 752.457 82.3345 760.332L170.309 875.471C171.157 876.551 172.137 877.09 173.25 877.088C174.362 877.086 175.284 876.665 176.014 875.826C176.766 874.925 177.012 873.801 176.75 872.453L147.406 730.607C145.376 720.956 142.18 713.407 137.819 707.959C133.397 702.489 128.084 699.222 121.879 698.16C115.636 697.013 108.685 698.139 101.026 701.536L90.7933 706.059ZM106.708 744.719C107.442 746.104 107.567 747.541 107.082 749.027C106.559 750.43 105.574 751.488 104.127 752.199L77.8278 764.593L72.8942 754.624L99.445 742.115C100.869 741.465 102.282 741.401 103.685 741.924C105.05 742.364 106.057 743.295 106.708 744.719ZM111.243 767.776C111.832 769.177 111.896 770.59 111.434 772.016C110.995 773.381 110.021 774.407 108.514 775.096L88.2439 784.735L83.2189 774.732L103.797 765.104C105.305 764.415 106.79 764.344 108.254 764.89C109.658 765.413 110.654 766.375 111.243 767.776ZM142.82 802.166C142.23 800.765 142.167 799.352 142.629 797.926C143.091 796.5 144.076 795.443 145.583 794.754L166.264 784.851L168.594 795.934L150.3 804.746C148.792 805.435 147.368 805.529 146.026 805.029C144.623 804.506 143.554 803.551 142.82 802.166ZM153.179 822.183C152.506 820.82 152.431 819.437 152.954 818.034C153.416 816.608 154.389 815.582 155.874 814.954L171.085 807.702L173.255 818.933L160.59 824.946C159.106 825.574 157.662 825.626 156.259 825.103C154.856 824.58 153.829 823.607 153.179 822.183Z" fill="#F2BBBB" fill-opacity="0.28"/>
<path d="M79.8931 163.243C77.723 161.332 75.6993 158.692 73.822 155.324C72.0069 151.936 70.4243 148.202 69.0741 144.122C67.7861 140.023 66.8281 135.888 66.2002 131.718C65.6344 127.528 65.5157 123.676 65.8442 120.161C66.2154 116.564 67.1099 113.655 68.5279 111.435C69.9885 109.134 72.111 107.853 74.8952 107.592C77.6369 107.413 79.8967 108.307 81.6747 110.273C83.5148 112.22 84.9094 114.921 85.8585 118.376C86.7882 121.769 87.3398 125.588 87.5134 129.832C87.6675 134.015 87.4605 138.243 86.8924 142.516C86.3243 146.789 85.4527 150.748 84.2777 154.393C83.1027 158.037 81.6412 160.988 79.8931 163.243ZM82.6932 165.639C81.7014 162.265 81.3397 158.182 81.608 153.389C81.9384 148.576 82.7869 143.567 84.1537 138.361C85.563 133.073 87.3592 128.038 89.5422 123.258C91.7252 118.477 94.1752 114.329 96.8922 110.814C99.6714 107.28 102.608 104.787 105.701 103.338C108.794 101.888 111.86 101.982 114.9 103.621C118.002 105.239 119.843 107.732 120.423 111.098C120.983 114.402 120.609 118.205 119.299 122.506C117.989 126.808 116.007 131.252 113.354 135.839C110.681 140.364 107.6 144.676 104.111 148.775C100.622 152.874 96.9984 156.435 93.2397 159.459C89.5431 162.463 86.0276 164.523 82.6932 165.639ZM86.1375 166.501C86.9877 163.778 88.5717 160.891 90.8894 157.843C93.2693 154.775 96.0493 151.786 99.2295 148.876C102.41 145.966 105.769 143.409 109.308 141.205C112.827 138.939 116.275 137.207 119.652 136.01C123.029 134.812 126.042 134.411 128.691 134.807C131.403 135.184 133.438 136.557 134.797 138.928C136.156 141.299 136.31 143.742 135.257 146.256C134.185 148.709 132.27 151.085 129.513 153.384C126.817 155.664 123.589 157.77 119.829 159.703C116.111 161.553 112.171 163.132 108.01 164.44C103.891 165.666 99.923 166.503 96.106 166.952C92.2694 167.338 88.9466 167.188 86.1375 166.501ZM80.5989 156.367L90.5458 161.636C97.9117 165.531 103.626 170.253 107.69 175.801C111.753 181.348 114.18 187.444 114.971 194.088C115.824 200.712 114.984 207.595 112.452 214.738C109.919 221.88 105.71 228.901 99.8253 235.8L5.74958 346.227C2.49305 349.98 -0.886692 351.929 -4.38965 352.074C-7.87309 352.282 -11.0841 351.619 -14.0226 350.085C-17.2877 348.382 -19.779 345.991 -21.4965 342.914C-23.2141 339.837 -23.4569 336.023 -22.2251 331.473L14.5145 191.361C16.893 182.424 20.2873 174.875 24.6974 168.712C29.1075 162.549 34.2638 157.892 40.1661 154.741C46.1306 151.57 52.5598 150.096 59.4539 150.318C66.3285 150.479 73.3768 152.495 80.5989 156.367ZM74.9073 167.573C67.4793 163.697 60.6084 162.137 54.2945 162.893C47.9806 163.648 42.4509 166.682 37.7055 171.995C33.0026 177.226 29.3945 184.638 26.8811 194.231L-9.95167 334.373C-10.2836 335.706 -10.1071 336.81 -9.42219 337.687C-8.73727 338.564 -7.83939 339.032 -6.72853 339.093C-5.55556 339.133 -4.51742 338.637 -3.61411 337.602L90.3046 227.327C96.6739 219.798 100.669 212.64 102.289 205.852C103.891 199.002 103.205 192.803 100.233 187.254C97.3037 181.623 92.1463 176.829 84.7609 172.871L74.9073 167.573ZM54.172 203.876C53.5295 205.307 52.4727 206.287 51.0016 206.818C49.5731 207.266 48.1339 207.139 46.6842 206.434L20.751 193.291L25.5882 183.275L51.7662 196.546C53.1539 197.27 54.0721 198.346 54.521 199.775C55.0124 201.122 54.8961 202.489 54.172 203.876ZM38.7616 221.616C38.018 222.942 36.9417 223.86 35.5326 224.371C34.1857 224.863 32.7776 224.725 31.3084 223.958L11.2523 213.882L16.0602 203.773L36.2973 214.099C37.7665 214.866 38.7354 215.995 39.2037 217.485C39.6526 218.914 39.5052 220.291 38.7616 221.616ZM31.0154 267.657C31.759 266.332 32.8353 265.413 34.2443 264.903C35.6533 264.392 37.0925 264.519 38.5618 265.286L59.0783 275.525L51.7631 284.17L33.5729 275.145C32.1036 274.378 31.1543 273.312 30.7249 271.945C30.2761 270.517 30.3729 269.088 31.0154 267.657ZM21.5805 288.126C22.2425 286.758 23.2878 285.849 24.7163 285.401C26.1254 284.89 27.5335 285.027 28.9406 285.813L44.006 293.363L36.4751 301.974L23.9517 295.672C22.5446 294.886 21.6166 293.779 21.1677 292.35C20.7188 290.922 20.8564 289.514 21.5805 288.126Z" fill="#F2BBBB" fill-opacity="0.28"/>
<path d="M506.06 129.885C503.529 128.485 500.985 126.342 498.428 123.457C495.927 120.538 493.578 117.232 491.383 113.538C489.243 109.812 487.419 105.98 485.909 102.042C484.456 98.0717 483.512 94.3348 483.077 90.831C482.666 87.2384 482.914 84.2056 483.822 81.7328C484.753 79.1711 486.551 77.4637 489.214 76.6105C491.853 75.8462 494.252 76.2331 496.411 77.7711C498.627 79.2768 500.569 81.6147 502.239 84.785C503.877 87.8987 505.236 91.5097 506.319 95.6178C507.368 99.6694 508.075 103.843 508.439 108.138C508.803 112.433 508.803 116.487 508.439 120.299C508.075 124.112 507.282 127.307 506.06 129.885ZM509.309 131.623C507.615 128.542 506.384 124.632 505.616 119.893C504.904 115.122 504.655 110.047 504.871 104.669C505.11 99.2015 505.782 93.8988 506.886 88.7608C507.99 83.6228 509.491 79.0452 511.389 75.0281C513.343 70.9785 515.675 67.9134 518.384 65.8327C521.093 63.7519 524.108 63.1847 527.429 64.131C530.806 65.0448 533.14 67.0832 534.43 70.2461C535.688 73.3526 536.14 77.147 535.785 81.6295C535.431 86.1119 534.451 90.8782 532.846 95.9284C531.209 100.922 529.127 105.796 526.601 110.549C524.075 115.302 521.301 119.559 518.28 123.32C515.316 127.049 512.326 129.816 509.309 131.623ZM512.859 131.725C513.103 128.882 514.03 125.723 515.638 122.247C517.302 118.739 519.375 115.223 521.855 111.697C524.335 108.171 527.066 104.952 530.048 102.039C532.998 99.0694 535.993 96.6368 539.033 94.7412C542.074 92.8455 544.931 91.8062 547.603 91.6232C550.332 91.4079 552.615 92.3118 554.452 94.335C556.289 96.3582 556.964 98.7108 556.477 101.393C555.957 104.018 554.598 106.75 552.399 109.589C550.257 112.395 547.557 115.146 544.3 117.842C541.067 120.449 537.559 122.838 533.776 125.009C530.017 127.092 526.322 128.763 522.691 130.022C519.027 131.224 515.75 131.792 512.859 131.725ZM505.271 123.019L516.118 126.026C524.149 128.246 530.745 131.629 535.906 136.173C541.067 140.717 544.748 146.149 546.949 152.467C549.206 158.753 549.866 165.656 548.928 173.176C547.99 180.696 545.389 188.457 541.125 196.46L472.991 324.531C470.618 328.896 467.736 331.527 464.346 332.422C460.989 333.373 457.71 333.416 454.511 332.55C450.956 331.588 448.009 329.789 445.67 327.153C443.331 324.517 442.274 320.845 442.499 316.137L448.255 171.402C448.657 162.163 450.348 154.06 453.331 147.094C456.313 140.127 460.347 134.47 465.434 130.124C470.577 125.745 476.539 122.923 483.32 121.658C490.068 120.336 497.385 120.79 505.271 123.019ZM502.121 135.187C494.034 132.998 486.988 132.952 480.984 135.047C474.981 137.142 470.232 141.294 466.74 147.503C463.272 153.623 461.342 161.637 460.95 171.546L455.109 316.33C455.071 317.703 455.481 318.744 456.338 319.453C457.196 320.161 458.173 320.426 459.271 320.246C460.425 320.034 461.332 319.326 461.992 318.121L530.005 190.232C534.607 181.51 536.97 173.66 537.093 166.683C537.184 159.649 535.182 153.742 531.086 148.962C527.015 144.092 520.947 140.519 512.884 138.242L502.121 135.187ZM489.676 175.099C489.356 176.634 488.535 177.818 487.212 178.653C485.914 179.398 484.481 179.583 482.913 179.206L454.761 171.946L457.331 161.124L485.75 168.457C487.261 168.865 488.39 169.719 489.135 171.018C489.905 172.227 490.085 173.588 489.676 175.099ZM478.44 195.737C477.999 197.191 477.145 198.32 475.879 199.122C474.669 199.891 473.264 200.059 471.665 199.627L449.911 194.098L452.433 183.191L474.417 188.926C476.017 189.358 477.206 190.252 477.984 191.607C478.729 192.906 478.881 194.283 478.44 195.737ZM480.774 242.367C481.215 240.912 482.069 239.784 483.335 238.982C484.601 238.18 486.034 237.996 487.634 238.428L509.872 244.017L504.587 254.032L484.881 249.129C483.282 248.697 482.125 247.859 481.412 246.617C480.667 245.318 480.454 243.902 480.774 242.367ZM475.96 264.385C476.313 262.907 477.138 261.795 478.437 261.049C479.703 260.247 481.108 260.079 482.651 260.544L498.987 264.678L493.484 274.707L479.899 271.245C478.355 270.78 477.211 269.898 476.465 268.599C475.72 267.301 475.552 265.896 475.96 264.385Z" fill="#F2BBBB" fill-opacity="0.28"/>
<path d="M1012.31 58.3297C1009.84 59.8317 1006.72 60.9768 1002.94 61.7651C999.166 62.4883 995.13 62.8864 990.833 62.9595C986.537 62.9675 982.304 62.6498 978.136 62.0065C973.968 61.2981 970.255 60.2633 966.998 58.9022C963.675 57.4761 961.165 55.7555 959.469 53.7404C957.707 51.6603 957.117 49.2526 957.697 46.5171C958.343 43.8466 959.87 41.9558 962.277 40.8445C964.683 39.6682 967.677 39.1418 971.258 39.2653C974.774 39.389 978.584 40.0004 982.687 41.0996C986.726 42.1988 990.7 43.6563 994.61 45.472C998.519 47.2876 1002.04 49.2993 1005.17 51.507C1008.3 53.7148 1010.68 55.989 1012.31 58.3297ZM1015.43 56.3708C1011.91 56.3122 1007.91 55.4408 1003.41 53.7564C998.919 52.0069 994.39 49.7041 989.827 46.848C985.199 43.9269 980.929 40.7122 977.016 37.2039C973.103 33.6955 969.874 30.1208 967.328 26.4796C964.782 22.7734 963.278 19.228 962.816 15.8435C962.354 12.4589 963.358 9.55991 965.827 7.14646C968.297 4.66791 971.225 3.65336 974.611 4.1028C977.932 4.55236 981.45 6.04322 985.166 8.57538C988.882 11.1075 992.533 14.3234 996.121 18.223C999.644 22.1227 1002.84 26.3486 1005.72 30.9005C1008.59 35.4525 1010.91 39.9729 1012.67 44.4618C1014.44 48.8856 1015.36 52.8553 1015.43 56.3708ZM1017.28 53.34C1014.93 51.7168 1012.65 49.3447 1010.43 46.2238C1008.21 43.0378 1006.19 39.4934 1004.36 35.5906C1002.53 31.6877 1001.09 27.719 1000.04 23.6845C998.924 19.6501 998.298 15.8427 998.161 12.2622C998.024 8.6817 998.54 5.68595 999.707 3.27492C1000.87 0.798787 1002.79 -0.734726 1005.46 -1.32562C1008.13 -1.91652 1010.51 -1.335 1012.59 0.418943C1014.61 2.173 1016.31 4.70892 1017.68 8.02668C1019.06 11.2793 1020.11 14.9883 1020.83 19.1537C1021.49 23.254 1021.82 27.4852 1021.83 31.8471C1021.77 36.1441 1021.39 40.1813 1020.68 43.9587C1019.91 47.7362 1018.77 50.8633 1017.28 53.34ZM1005.96 55.6071L1013.95 47.6821C1019.86 41.8118 1026.07 37.7638 1032.58 35.5381C1039.09 33.3125 1045.63 32.812 1052.21 34.0368C1058.78 35.1965 1065.1 38.0493 1071.17 42.5953C1077.23 47.1414 1082.68 53.2511 1087.51 60.9244L1164.89 183.632C1167.5 187.859 1168.35 191.666 1167.45 195.053C1166.61 198.44 1165.02 201.308 1162.68 203.656C1160.08 206.265 1157.05 207.931 1153.6 208.653C1150.16 209.376 1146.44 208.471 1142.47 205.94L1019.67 129.117C1011.85 124.184 1005.65 118.694 1001.08 112.648C996.514 106.601 993.605 100.292 992.355 93.7184C991.106 87.0801 991.615 80.5036 993.881 73.989C996.083 67.4745 1000.11 61.3472 1005.96 55.6071ZM1014.96 64.3795C1009.04 70.315 1005.51 76.4088 1004.35 82.661C1003.19 88.9131 1004.43 95.0957 1008.09 101.209C1011.68 107.257 1017.68 112.91 1026.09 118.168L1148.89 195.088C1150.06 195.802 1151.17 195.963 1152.21 195.57C1153.25 195.177 1153.97 194.46 1154.36 193.418C1154.75 192.31 1154.58 191.171 1153.86 190.001L1076.58 67.4877C1071.3 59.1641 1065.65 53.2176 1059.66 49.648C1053.6 46.0785 1047.47 44.8855 1041.29 46.0688C1035.04 47.1872 1028.93 50.6816 1022.95 56.5521L1014.96 64.3795ZM1043.43 94.9907C1044.61 96.0302 1045.23 97.3311 1045.29 98.8935C1045.3 100.391 1044.75 101.727 1043.64 102.9L1023.37 123.739L1015.25 116.137L1035.72 95.1027C1036.82 93.9939 1038.12 93.4381 1039.62 93.4353C1041.05 93.3675 1042.32 93.886 1043.43 94.9907ZM1055.77 114.987C1056.82 116.092 1057.37 117.393 1057.44 118.891C1057.51 120.323 1056.96 121.626 1055.79 122.8L1040.19 138.942L1031.98 131.34L1047.86 115.1C1049.03 113.926 1050.4 113.337 1051.96 113.334C1053.46 113.331 1054.73 113.883 1055.77 114.987ZM1097.41 136.101C1096.37 134.997 1095.82 133.696 1095.75 132.198C1095.68 130.701 1096.23 129.365 1097.4 128.191L1113.29 111.658L1119.36 121.217L1105.32 135.891C1104.15 137.065 1102.85 137.654 1101.42 137.656C1099.92 137.659 1098.59 137.141 1097.41 136.101ZM1114.14 151.207C1113.03 150.167 1112.48 148.899 1112.47 147.402C1112.41 145.904 1112.96 144.601 1114.13 143.492L1125.82 131.361L1131.8 141.116L1122.05 151.192C1120.88 152.301 1119.55 152.857 1118.05 152.86C1116.55 152.863 1115.25 152.312 1114.14 151.207Z" fill="#F2BBBB" fill-opacity="0.28"/>
</svg>
